<svg width="75" height="75" viewBox="0 0 75 75" fill="none" xmlns="http://www.w3.org/2000/svg">
<path d="M12.5 6.25C9.04541 6.25 6.25 9.04541 6.25 12.5V50C6.25 53.4546 9.04541 56.25 12.5 56.25H31.25V59.375H18.75L9.375 68.75H65.625L56.25 59.375H43.75V56.25H62.5C65.9546 56.25 68.75 53.4546 68.75 50V12.5C68.75 9.04541 65.9546 6.25 62.5 6.25H12.5ZM12.5 12.5H62.5V50H12.5V12.5ZM30.4688 18.75L18.75 30.4688L30.4688 42.1875L34.375 38.2812L26.5625 30.4688L34.375 22.6562L30.4688 18.75ZM44.5312 18.75L40.625 22.6562L48.4375 30.4688L40.625 38.2812L44.5312 42.1875L56.25 30.4688L44.5312 18.75Z" fill="black"/>
</svg>
