<svg width="32" height="35" viewBox="0 0 32 35" fill="none" xmlns="http://www.w3.org/2000/svg">
<path fill-rule="evenodd" clip-rule="evenodd" d="M15.3243 0.0528599L0.400609 8.66908L0.400676 8.66919H0.400617V9.42972L0 10.1236L0.400617 10.3549V10.6798L0.119336 10.9355L0.400617 11.245V26.0073H0.400766L15.3244 34.6235L15.3548 34.6762L15.3852 34.6586L15.4159 34.6764L15.4467 34.6231L16.3163 34.121H16.786V33.8499L30.3701 26.0071L30.2353 25.7737H31.1713V8.99084H30.1844L30.3701 8.66919L15.4465 0.0530868L15.4159 0L15.3852 0.0176956L15.3548 0.000113407L15.3243 0.0528599ZM14.786 2.6731L2.94064 9.51199L14.786 16.3509V2.6731ZM29.1713 24.3898L16.786 31.5405V26.2238L29.1713 12.5673V24.3898ZM26.3646 12.685L16.786 23.2467V18.5369V18.2152L26.3646 12.685ZM16.786 3.1358V15.9058L27.8451 9.52081L16.786 3.1358ZM2.40062 13.4456L2.40062 24.8526L14.786 32.0032V26.5694L14.5352 26.7972L2.40062 13.4456ZM14.786 24.0995V18.6603L4.38494 12.6553L14.786 24.0995Z" fill="white"/>
</svg>
