<svg width="75" height="75" viewBox="0 0 75 75" fill="none" xmlns="http://www.w3.org/2000/svg">
<path d="M17.749 6.25L22.3694 22.9492V30.957H26.3733V22.9492L31.0547 6.25H27.0203L25.3418 13.8489C24.8699 16.0676 24.5699 17.6446 24.4324 18.5852H24.3103C24.1134 17.2696 23.8134 15.6809 23.4009 13.8184L21.7834 6.25H17.749ZM35.7239 12.5549C34.3676 12.5549 33.2746 12.82 32.4402 13.3606C31.6058 13.8981 30.9907 14.7582 30.5969 15.9363C30.2063 17.1144 30.011 18.6739 30.011 20.6177V23.2422C30.011 25.1641 30.1799 26.7032 30.5237 27.8625C30.8674 29.0219 31.4476 29.876 32.2632 30.426C33.0788 30.976 34.2011 31.25 35.6323 31.25C37.0261 31.25 38.134 30.9789 38.9465 30.4382C39.759 29.8976 40.3479 29.0496 40.7104 27.8809C41.0729 26.7121 41.2537 25.1672 41.2537 23.2422V20.6177C41.2537 18.6771 41.0701 17.1233 40.6982 15.9546C40.3264 14.789 39.7345 13.9289 38.9282 13.3789C38.122 12.8289 37.0583 12.5549 35.7239 12.5549ZM43.3716 12.9089V26.3916C43.3716 28.0604 43.6512 29.2876 44.22 30.072C44.7887 30.8564 45.672 31.25 46.8689 31.25C48.5939 31.25 49.8943 30.4163 50.7568 28.7476H50.8423L51.1963 30.957H54.3762V12.9089H50.3174V27.2461C50.1611 27.5805 49.9222 27.8544 49.5972 28.0701C49.2722 28.2888 48.9371 28.3936 48.584 28.3936C48.1715 28.3936 47.8771 28.2246 47.699 27.8809C47.5209 27.5371 47.4304 26.9598 47.4304 26.1536V12.9089H43.3716ZM35.6323 15.3503C36.2011 15.3503 36.6036 15.6476 36.8286 16.2476C37.0536 16.8444 37.1643 17.7949 37.1643 19.0918V24.7131C37.1643 26.0475 37.0536 27.0126 36.8286 27.6001C36.6036 28.1876 36.2041 28.482 35.6384 28.4851C35.0697 28.4851 34.6761 28.1876 34.4604 27.6001C34.2417 27.0126 34.137 26.0475 34.137 24.7131V19.0918C34.137 17.798 34.2477 16.8476 34.4727 16.2476C34.6977 15.6507 35.0823 15.3503 35.6323 15.3503ZM15.625 34.375C12.1875 34.375 9.375 37.1875 9.375 40.625V62.5C9.375 65.9375 12.1875 68.75 15.625 68.75H59.375C62.8125 68.75 65.625 65.9375 65.625 62.5V40.625C65.625 37.1875 62.8125 34.375 59.375 34.375H15.625ZM37.6526 40.625H40.9546V48.6511H40.979C41.2759 48.0699 41.7017 47.6036 42.2485 47.2473C42.7954 46.8911 43.3873 46.7163 44.0186 46.7163C44.8311 46.7163 45.4665 46.932 45.929 47.3633C46.3915 47.7945 46.7298 48.4913 46.936 49.4507C47.1423 50.4132 47.2412 51.7483 47.2412 53.4546V55.8655H47.2473C47.2473 58.1374 46.9702 59.8016 46.4233 60.8704C45.8765 61.9391 45.0253 62.4756 43.866 62.4756C43.2191 62.4756 42.6333 62.3269 42.1021 62.03C41.5708 61.7332 41.1714 61.325 40.9058 60.8093H40.8325L40.4846 62.2498H37.6526V40.625ZM17.1448 41.394H27.3071V44.1589H23.9014V62.2498H20.5505V44.1589H17.1448V41.394ZM53.4302 46.7224C54.6052 46.7224 55.5089 46.9381 56.1401 47.3694C56.7683 47.8006 57.2113 48.4742 57.4707 49.3835C57.727 50.296 57.8552 51.5554 57.8552 53.1616V55.7739H52.1179V56.5491C52.1179 57.5272 52.144 58.2588 52.2034 58.7463C52.2627 59.2338 52.3822 59.5926 52.5635 59.8145C52.7447 60.0395 53.0245 60.1501 53.4058 60.1501C53.9183 60.1501 54.271 59.9489 54.4617 59.552C54.6523 59.1551 54.7573 58.4965 54.7729 57.5684L57.7332 57.7393C57.7488 57.8705 57.7576 58.0573 57.7576 58.2886C57.7576 59.6979 57.3698 60.7503 56.5979 61.4441C55.826 62.141 54.7419 62.4878 53.3325 62.4878C51.6419 62.4878 50.4554 61.9542 49.7742 60.8948C49.0929 59.8354 48.7549 58.1972 48.7549 55.9753V53.3142C48.7549 51.0267 49.1077 49.3563 49.8108 48.3032C50.5139 47.2501 51.7239 46.7224 53.4302 46.7224ZM26.2817 47.0154H29.718V58.2031C29.718 58.8812 29.7938 59.3683 29.9438 59.6558C30.0938 59.9464 30.3385 60.0891 30.6885 60.0891C30.9854 60.0891 31.2772 59.9988 31.5491 59.8145C31.8241 59.6332 32.0189 59.3999 32.1533 59.1187V47.0154H35.5896V62.2498H35.5835H32.8979L32.605 60.3821H32.5256C31.7944 61.7946 30.7013 62.5 29.2419 62.5C28.2294 62.5 27.4893 62.1676 27.0081 61.5051C26.5268 60.8426 26.2817 59.8047 26.2817 58.3984V47.0154ZM53.3569 49.0417C52.9913 49.0417 52.7202 49.1527 52.5452 49.3652C52.3702 49.5809 52.2535 49.9336 52.1973 50.4211C52.1379 50.9086 52.1118 51.6491 52.1118 52.6428V53.7354H54.6204V52.6428C54.6204 51.6647 54.5883 50.9274 54.5227 50.4211C54.4602 49.9149 54.3376 49.5593 54.1626 49.353C53.9876 49.1468 53.7226 49.0417 53.3569 49.0417ZM42.4744 49.1516C42.1431 49.1516 41.8401 49.2827 41.5588 49.5483C41.2776 49.814 41.0763 50.1551 40.9607 50.5676V59.2163C41.1107 59.4819 41.306 59.6801 41.5466 59.8145C41.7873 59.9457 42.0435 60.0159 42.3279 60.0159C42.6935 60.0159 42.979 59.8848 43.1946 59.6191C43.4102 59.3535 43.5678 58.9076 43.6584 58.2764C43.7491 57.6482 43.7927 56.7734 43.7927 55.6641V53.7048C43.7927 52.5111 43.7579 51.5929 43.6829 50.946C43.6079 50.2992 43.4736 49.8324 43.2861 49.5605C43.0955 49.2887 42.8244 49.1516 42.4744 49.1516Z" fill="black"/>
</svg>
